# Blender v2.79 (sub 7) OBJ File: ''
# www.blender.org
mtllib test19111302.mtl
o Cube.001
v -0.524508 -1.257286 0.845584
v 0.028261 -0.507368 0.845584
v -0.524508 -1.257286 -0.768578
v 0.028261 -0.507368 -0.768578
v 0.535224 -1.257286 0.845584
v 0.264122 -0.507368 0.845584
v 0.535224 -1.257286 -0.768578
v 0.264122 -0.507368 -0.768578
v 0.253075 -0.987986 -0.098286
vn -0.8050 0.5933 0.0000
vn 0.0000 0.0000 -1.0000
vn 0.9404 0.3400 0.0000
vn 0.0000 0.0000 1.0000
vn 0.0000 -1.0000 0.0000
vn 0.0000 1.0000 0.0000
usemtl None
s off
f 1//1 2//1 4//1 3//1
f 3//2 4//2 8//2 7//2
f 7//3 8//3 6//3 5//3
f 5//4 6//4 2//4 1//4
f 3//5 7//5 5//5 1//5
f 8//6 4//6 2//6 6//6
o Cube
v 1.000000 -1.000000 -1.807472
v 1.000000 -1.000000 1.807472
v -1.000000 -1.000000 1.807472
v -1.000000 -1.000000 -1.807473
v 1.000000 1.000000 -1.807472
v 0.999999 1.000000 1.807473
v -1.000000 1.000000 1.807472
v -1.000000 1.000000 -1.807472
vn 0.0000 -1.0000 0.0000
vn 0.0000 1.0000 0.0000
vn 1.0000 0.0000 0.0000
vn -0.0000 -0.0000 1.0000
vn -1.0000 -0.0000 -0.0000
vn 0.0000 0.0000 -1.0000
usemtl Material
s off
f 10//7 11//7 12//7 13//7
f 14//8 17//8 16//8 15//8
f 10//9 14//9 15//9 11//9
f 11//10 15//10 16//10 12//10
f 12//11 16//11 17//11 13//11
f 14//12 10//12 13//12 17//12
