# Blender v2.79 (sub 7) OBJ File: ''
# www.blender.org
mtllib test19101601.mtl
o Circle_Circle.002
v -0.998389 -0.260400 0.720759
v -1.005338 -0.260400 0.721443
v -1.012020 -0.260400 0.723470
v -1.018178 -0.260400 0.726762
v -1.023575 -0.260400 0.731192
v -1.028005 -0.260400 0.736589
v -1.031296 -0.260400 0.742747
v -1.033323 -0.260400 0.749429
v -1.034008 -0.260400 0.756378
v -1.033323 -0.260400 0.763327
v -1.031296 -0.260400 0.770009
v -1.028005 -0.260400 0.776167
v -1.023575 -0.260400 0.781564
v -1.018178 -0.260400 0.785994
v -1.012020 -0.260400 0.789285
v -1.005338 -0.260400 0.791312
v -0.998389 -0.260400 0.791997
v -0.991440 -0.260400 0.791312
v -0.984758 -0.260400 0.789285
v -0.978600 -0.260400 0.785994
v -0.973203 -0.260400 0.781564
v -0.968773 -0.260400 0.776167
v -0.965481 -0.260400 0.770009
v -0.963454 -0.260400 0.763327
v -0.962770 -0.260400 0.756378
v -0.963454 -0.260400 0.749429
v -0.965481 -0.260400 0.742747
v -0.968773 -0.260400 0.736589
v -0.973203 -0.260400 0.731192
v -0.978600 -0.260400 0.726762
v -0.984758 -0.260400 0.723470
v -0.991440 -0.260400 0.721443
l 2 1
l 3 2
l 4 3
l 5 4
l 6 5
l 7 6
l 8 7
l 9 8
l 10 9
l 11 10
l 12 11
l 13 12
l 14 13
l 15 14
l 16 15
l 17 16
l 18 17
l 19 18
l 20 19
l 21 20
l 22 21
l 23 22
l 24 23
l 25 24
l 26 25
l 27 26
l 28 27
l 29 28
l 30 29
l 31 30
l 32 31
l 1 32
o Cube
v 0.000381 -0.432662 -0.519582
v 0.000381 -0.432662 1.187545
v -1.375844 -0.432662 1.187545
v -1.375844 -0.432662 -0.519582
v -0.313739 0.095089 -0.519582
v -0.313739 0.095089 1.187545
v -0.841490 0.095089 1.187545
v -0.841490 0.095089 -0.519582
vt 0.000000 0.000000
vt 1.000000 0.000000
vt 1.000000 1.000000
vt 0.000000 1.000000
vt 0.000000 -1.000000
vt 0.000000 -2.000000
vt 1.000000 -2.000000
vt 1.000000 -1.000000
vt 2.000000 0.000000
vt 2.000000 1.000000
vt 1.000000 2.000000
vt 0.000000 2.000000
vt -1.000000 0.000000
vt -1.000000 1.000000
vn 0.0000 -1.0000 0.0000
vn 0.0000 1.0000 -0.0000
vn 0.8593 0.5115 0.0000
vn 0.0000 0.0000 1.0000
vn -0.7027 0.7115 -0.0000
vn 0.0000 0.0000 -1.0000
usemtl Material.001
s off
f 33/1/1 34/2/1 35/3/1 36/4/1
f 37/5/2 40/6/2 39/7/2 38/8/2
f 33/1/3 37/5/3 38/8/3 34/2/3
f 34/2/4 38/9/4 39/10/4 35/3/4
f 35/3/5 39/11/5 40/12/5 36/4/5
f 37/13/6 33/1/6 36/4/6 40/14/6
o Circle.001_Circle.003
v -0.966162 -0.274594 -0.019929
v -0.973111 -0.274594 -0.019245
v -0.979793 -0.274594 -0.017218
v -0.985951 -0.274594 -0.013926
v -0.991349 -0.274594 -0.009497
v -0.995778 -0.274594 -0.004099
v -0.999070 -0.274594 0.002059
v -1.001097 -0.274594 0.008741
v -1.001781 -0.274594 0.015690
v -1.001097 -0.274594 0.022639
v -0.999070 -0.274594 0.029320
v -0.995778 -0.274594 0.035479
v -0.991349 -0.274594 0.040876
v -0.985951 -0.274594 0.045306
v -0.979793 -0.274594 0.048597
v -0.973111 -0.274594 0.050624
v -0.966162 -0.274594 0.051309
v -0.959213 -0.274594 0.050624
v -0.952532 -0.274594 0.048597
v -0.946373 -0.274594 0.045306
v -0.940976 -0.274594 0.040876
v -0.936546 -0.274594 0.035478
v -0.933255 -0.274594 0.029320
v -0.931228 -0.274594 0.022639
v -0.930543 -0.274594 0.015690
v -0.931228 -0.274594 0.008741
v -0.933255 -0.274594 0.002059
v -0.936546 -0.274594 -0.004099
v -0.940976 -0.274594 -0.009497
v -0.946374 -0.274594 -0.013926
v -0.952532 -0.274594 -0.017218
v -0.959213 -0.274594 -0.019245
l 42 41
l 43 42
l 44 43
l 45 44
l 46 45
l 47 46
l 48 47
l 49 48
l 50 49
l 51 50
l 52 51
l 53 52
l 54 53
l 55 54
l 56 55
l 57 56
l 58 57
l 59 58
l 60 59
l 61 60
l 62 61
l 63 62
l 64 63
l 65 64
l 66 65
l 67 66
l 68 67
l 69 68
l 70 69
l 71 70
l 72 71
l 41 72
o Circle.002_Circle.004
v -0.963299 -0.259576 0.335601
v -0.970248 -0.259576 0.336286
v -0.976930 -0.259576 0.338313
v -0.983088 -0.259576 0.341604
v -0.988486 -0.259576 0.346034
v -0.992915 -0.259576 0.351431
v -0.996207 -0.259576 0.357589
v -0.998234 -0.259576 0.364271
v -0.998918 -0.259576 0.371220
v -0.998234 -0.259576 0.378169
v -0.996207 -0.259576 0.384851
v -0.992915 -0.259576 0.391009
v -0.988486 -0.259576 0.396407
v -0.983088 -0.259576 0.400836
v -0.976930 -0.259576 0.404128
v -0.970248 -0.259576 0.406155
v -0.963299 -0.259576 0.406839
v -0.956350 -0.259576 0.406155
v -0.949669 -0.259576 0.404128
v -0.943511 -0.259576 0.400836
v -0.938113 -0.259576 0.396407
v -0.933683 -0.259576 0.391009
v -0.930392 -0.259576 0.384851
v -0.928365 -0.259576 0.378169
v -0.927680 -0.259576 0.371220
v -0.928365 -0.259576 0.364271
v -0.930392 -0.259576 0.357589
v -0.933683 -0.259576 0.351431
v -0.938113 -0.259576 0.346034
v -0.943511 -0.259576 0.341604
v -0.949669 -0.259576 0.338313
v -0.956351 -0.259576 0.336286
l 74 73
l 75 74
l 76 75
l 77 76
l 78 77
l 79 78
l 80 79
l 81 80
l 82 81
l 83 82
l 84 83
l 85 84
l 86 85
l 87 86
l 88 87
l 89 88
l 90 89
l 91 90
l 92 91
l 93 92
l 94 93
l 95 94
l 96 95
l 97 96
l 98 97
l 99 98
l 100 99
l 101 100
l 102 101
l 103 102
l 104 103
l 73 104
